<?xml version="1.0" encoding="iso-8859-1"?>
<!-- Uploaded to: SVG Repo, www.svgrepo.com, Generator: SVG Repo Mixer Tools -->
<svg fill="#000000" height="800px" width="800px" version="1.1" id="Layer_1" xmlns="http://www.w3.org/2000/svg" xmlns:xlink="http://www.w3.org/1999/xlink" 
	 viewBox="0 0 512 512" xml:space="preserve">
<g>
	<g>
		<g>
			<path d="M180.641,181.748c-2.082-7.287-8.823-12.382-16.41-12.382h-61.824c-9.412,0-17.067,7.654-17.067,17.067v42.667
				c0,9.404,7.654,17.067,17.067,17.067h74.018c5.402,0,10.368-2.475,13.628-6.793c3.251-4.318,4.267-9.771,2.782-14.959
				L180.641,181.748z"/>
			<circle cx="119.47" cy="433.897" r="8.533"/>
			<circle cx="162.137" cy="433.897" r="8.533"/>
			<circle cx="204.803" cy="433.897" r="8.533"/>
			<circle cx="247.47" cy="433.897" r="8.533"/>
			<circle cx="290.137" cy="433.897" r="8.533"/>
			<path d="M469.333,195.732V84.031c0-0.486-0.196-0.913-0.273-1.382c1.536-4.514,2.21-9.335,1.843-14.165
				c-0.725-9.873-5.581-19.072-13.303-25.242c-14.583-11.682-35.9-10.078-48.563,3.652L243.2,221.102l-17.058-76.245
				c-3.516-15.718-17.212-26.692-33.323-26.692h-22.153v-17.067c0-18.825-15.309-34.133-34.133-34.133
				c-18.816,0-34.133,15.309-34.133,34.133v17.067H76.817c-18.825,0-34.15,15.317-34.15,34.15v127.983v17.067v17.067h153.6
				c4.719,0,8.533,3.814,8.533,8.533s-3.814,8.533-8.533,8.533h-153.6v17.067h204.8c4.719,0,8.533,3.814,8.533,8.533
				c0,4.719-3.814,8.533-8.533,8.533h-204.8v25.6C19.149,391.231,0,410.371,0,433.897c0,23.526,19.149,42.667,42.667,42.667h324.267
				c23.526,0,42.667-19.14,42.667-42.667c0-23.526-19.14-42.667-42.667-42.667h-11.699l28.612-81.22
				c2.978-6.409,2.551-13.756-1.178-19.797c-3.84-6.204-10.487-9.916-17.783-9.916h-80.649l168.03-175.275v90.709
				c-24.175,4.087-42.667,25.114-42.667,50.432c0,28.237,22.972,51.2,51.2,51.2c28.237,0,51.2-22.963,51.2-51.2
				C512,220.846,493.517,199.819,469.333,195.732z M119.467,101.097c0-9.412,7.654-17.067,17.067-17.067
				c9.412,0,17.067,7.654,17.067,17.067v17.067h-34.133V101.097z M59.733,280.297V152.314c0-9.421,7.663-17.084,17.084-17.084H102.4
				h68.267h22.153c8.055,0,14.916,5.495,16.666,13.346l20.54,91.836v0.008l8.926,39.876H59.733z M42.667,459.497
				c-14.114,0-25.6-11.486-25.6-25.6s11.486-25.6,25.6-25.6c14.123,0,25.6,11.486,25.6,25.6S56.789,459.497,42.667,459.497z
				 M366.933,408.297c14.123,0,25.6,11.486,25.6,25.6s-11.477,25.6-25.6,25.6c-14.114,0-25.6-11.486-25.6-25.6
				S352.819,408.297,366.933,408.297z M333.022,408.297c-5.419,7.151-8.755,15.957-8.755,25.6c0,9.643,3.337,18.449,8.755,25.6
				H76.587c5.41-7.151,8.747-15.957,8.747-25.6c0-9.643-3.337-18.449-8.747-25.6H333.022z M449.067,83.706L260.591,280.297h-4.147
				l-1.758-7.834l-7.006-31.326L421.444,58.61c0.034-0.026,0.068-0.068,0.102-0.102c6.605-7.202,17.766-8.064,25.395-1.946
				c4.087,3.268,6.554,7.953,6.946,13.184C454.281,74.968,452.531,79.969,449.067,83.706z"/>
		</g>
	</g>
</g>
</svg>